<svg xmlns="http://www.w3.org/2000/svg" viewBox="0 0 600 320" font-family="system-ui, sans-serif">
<rect width="600" height="320" fill="#fafafa" rx="8"/>
<line x1="60" y1="270.0" x2="570" y2="270.0" stroke="#e5e7eb" stroke-width="1"/>
<text x="52" y="274.0" text-anchor="end" fill="#6b7280" font-size="11">8%</text>
<line x1="60" y1="210.0" x2="570" y2="210.0" stroke="#e5e7eb" stroke-width="1"/>
<text x="52" y="214.0" text-anchor="end" fill="#6b7280" font-size="11">10%</text>
<line x1="60" y1="150.0" x2="570" y2="150.0" stroke="#e5e7eb" stroke-width="1"/>
<text x="52" y="154.0" text-anchor="end" fill="#6b7280" font-size="11">12%</text>
<line x1="60" y1="90.0" x2="570" y2="90.0" stroke="#e5e7eb" stroke-width="1"/>
<text x="52" y="94.0" text-anchor="end" fill="#6b7280" font-size="11">14%</text>
<line x1="60" y1="30.0" x2="570" y2="30.0" stroke="#e5e7eb" stroke-width="1"/>
<text x="52" y="34.0" text-anchor="end" fill="#6b7280" font-size="11">16%</text>
<text x="60.0" y="295" text-anchor="middle" fill="#6b7280" font-size="11">Yr 0</text>
<text x="111.0" y="295" text-anchor="middle" fill="#6b7280" font-size="11">Yr 1</text>
<text x="162.0" y="295" text-anchor="middle" fill="#6b7280" font-size="11">Yr 2</text>
<text x="213.0" y="295" text-anchor="middle" fill="#6b7280" font-size="11">Yr 3</text>
<text x="264.0" y="295" text-anchor="middle" fill="#6b7280" font-size="11">Yr 4</text>
<text x="315.0" y="295" text-anchor="middle" fill="#6b7280" font-size="11">Yr 5</text>
<text x="366.0" y="295" text-anchor="middle" fill="#6b7280" font-size="11">Yr 6</text>
<text x="417.0" y="295" text-anchor="middle" fill="#6b7280" font-size="11">Yr 7</text>
<text x="468.0" y="295" text-anchor="middle" fill="#6b7280" font-size="11">Yr 8</text>
<text x="519.0" y="295" text-anchor="middle" fill="#6b7280" font-size="11">Yr 9</text>
<text x="570.0" y="295" text-anchor="middle" fill="#6b7280" font-size="11">Yr 10</text>
<defs><linearGradient id="cocGrad" x1="0" y1="0" x2="0" y2="1"><stop offset="0%" stop-color="#8B5CF6" stop-opacity="0.15"/><stop offset="100%" stop-color="#8B5CF6" stop-opacity="0.02"/></linearGradient></defs>
<polygon points="60.0,270.0 60.0,63.0 111.0,118.0 162.0,156.8 213.0,184.1 264.0,203.4 315.0,216.9 366.0,226.5 417.0,233.2 468.0,238.0 519.0,241.3 570.0,249.3 570.0,270.0" fill="url(#cocGrad)"/>
<polyline points="60.0,63.0 111.0,118.0 162.0,156.8 213.0,184.1 264.0,203.4 315.0,216.9 366.0,226.5 417.0,233.2 468.0,238.0 519.0,241.3 570.0,249.3" fill="none" stroke="#8B5CF6" stroke-width="2.5" stroke-linejoin="round"/>
<circle cx="60.0" cy="63.0" r="3.5" fill="#8B5CF6"/>
<text x="60.0" y="51.0" text-anchor="middle" fill="#8B5CF6" font-size="10" font-weight="600">14.9%</text>
<circle cx="111.0" cy="118.0" r="3.5" fill="#8B5CF6"/>
<text x="111.0" y="106.0" text-anchor="middle" fill="#8B5CF6" font-size="10" font-weight="600">13.1%</text>
<circle cx="162.0" cy="156.8" r="3.5" fill="#8B5CF6"/>
<circle cx="213.0" cy="184.1" r="3.5" fill="#8B5CF6"/>
<text x="213.0" y="172.1" text-anchor="middle" fill="#8B5CF6" font-size="10" font-weight="600">10.9%</text>
<circle cx="264.0" cy="203.4" r="3.5" fill="#8B5CF6"/>
<circle cx="315.0" cy="216.9" r="3.5" fill="#8B5CF6"/>
<text x="315.0" y="204.9" text-anchor="middle" fill="#8B5CF6" font-size="10" font-weight="600">9.8%</text>
<circle cx="366.0" cy="226.5" r="3.5" fill="#8B5CF6"/>
<circle cx="417.0" cy="233.2" r="3.5" fill="#8B5CF6"/>
<text x="417.0" y="221.2" text-anchor="middle" fill="#8B5CF6" font-size="10" font-weight="600">9.2%</text>
<circle cx="468.0" cy="238.0" r="3.5" fill="#8B5CF6"/>
<circle cx="519.0" cy="241.3" r="3.5" fill="#8B5CF6"/>
<circle cx="570.0" cy="249.3" r="3.5" fill="#8B5CF6"/>
<text x="570.0" y="237.3" text-anchor="middle" fill="#8B5CF6" font-size="10" font-weight="600">8.7%</text>
<text x="300.0" y="18" text-anchor="middle" fill="#374151" font-size="13" font-weight="600">Cost of Capital — Exponential Decay</text>
</svg>