<svg viewBox="0 0 520 210" xmlns="http://www.w3.org/2000/svg" font-family="system-ui, -apple-system, sans-serif">
  <text x="260.0" y="16" text-anchor="middle" font-size="12" font-weight="600" fill="#374151">Operating Margin — Standard S-Curve</text>
  <rect x="58" y="32" width="437" height="136" fill="#fafafa" rx="3"/>
  <line x1="58" y1="32.0" x2="495" y2="32.0" stroke="#e5e7eb" stroke-width="0.5"/>
  <text x="53" y="32.0" text-anchor="end" dominant-baseline="middle" font-size="9" fill="#9ca3af">22%</text>
  <line x1="58" y1="59.2" x2="495" y2="59.2" stroke="#e5e7eb" stroke-width="0.5"/>
  <text x="53" y="59.2" text-anchor="end" dominant-baseline="middle" font-size="9" fill="#9ca3af">17%</text>
  <line x1="58" y1="86.4" x2="495" y2="86.4" stroke="#e5e7eb" stroke-width="0.5"/>
  <text x="53" y="86.4" text-anchor="end" dominant-baseline="middle" font-size="9" fill="#9ca3af">12%</text>
  <line x1="58" y1="113.6" x2="495" y2="113.6" stroke="#e5e7eb" stroke-width="0.5"/>
  <text x="53" y="113.6" text-anchor="end" dominant-baseline="middle" font-size="9" fill="#9ca3af">7.0%</text>
  <line x1="58" y1="140.8" x2="495" y2="140.8" stroke="#e5e7eb" stroke-width="0.5"/>
  <text x="53" y="140.8" text-anchor="end" dominant-baseline="middle" font-size="9" fill="#9ca3af">2.0%</text>
  <line x1="58" y1="168.0" x2="495" y2="168.0" stroke="#e5e7eb" stroke-width="0.5"/>
  <text x="53" y="168.0" text-anchor="end" dominant-baseline="middle" font-size="9" fill="#9ca3af">-3.0%</text>
  <text x="58.0" y="198" text-anchor="middle" font-size="9" fill="#9ca3af">Base</text>
  <text x="101.7" y="198" text-anchor="middle" font-size="9" fill="#9ca3af">1</text>
  <text x="145.4" y="198" text-anchor="middle" font-size="9" fill="#9ca3af">2</text>
  <text x="189.1" y="198" text-anchor="middle" font-size="9" fill="#9ca3af">3</text>
  <text x="232.8" y="198" text-anchor="middle" font-size="9" fill="#9ca3af">4</text>
  <text x="276.5" y="198" text-anchor="middle" font-size="9" fill="#9ca3af">5</text>
  <text x="320.2" y="198" text-anchor="middle" font-size="9" fill="#9ca3af">6</text>
  <text x="363.9" y="198" text-anchor="middle" font-size="9" fill="#9ca3af">7</text>
  <text x="407.6" y="198" text-anchor="middle" font-size="9" fill="#9ca3af">8</text>
  <text x="451.3" y="198" text-anchor="middle" font-size="9" fill="#9ca3af">9</text>
  <text x="495.0" y="198" text-anchor="middle" font-size="9" fill="#9ca3af">10</text>
  <text x="276.5" y="209" text-anchor="middle" font-size="9" fill="#d1d5db">Year</text>
  <defs><linearGradient id="g10B981" x1="0" y1="0" x2="0" y2="1"><stop offset="0%" stop-color="#10B981" stop-opacity="0.12"/><stop offset="100%" stop-color="#10B981" stop-opacity="0.01"/></linearGradient></defs>
  <polygon points="58.0,168 58.0,156.7 101.7,139.6 145.4,137.8 189.1,133.2 232.8,122.7 276.5,103.5 320.2,79.4 363.9,60.2 407.6,49.7 451.3,45.1 495.0,43.3 495.0,168" fill="url(#g10B981)"/>
  <polyline points="58.0,156.7 101.7,139.6 145.4,137.8 189.1,133.2 232.8,122.7 276.5,103.5 320.2,79.4 363.9,60.2 407.6,49.7 451.3,45.1 495.0,43.3" fill="none" stroke="#10B981" stroke-width="2.5" stroke-linecap="round" stroke-linejoin="round"/>
  <circle cx="58.0" cy="156.7" r="3" fill="white" stroke="#10B981" stroke-width="1.8"/>
  <text x="58.0" y="145.7" text-anchor="middle" font-size="8.5" font-weight="600" fill="#10B981">-0.9%</text>
  <circle cx="101.7" cy="139.6" r="3" fill="white" stroke="#10B981" stroke-width="1.8"/>
  <circle cx="145.4" cy="137.8" r="3" fill="white" stroke="#10B981" stroke-width="1.8"/>
  <circle cx="189.1" cy="133.2" r="3" fill="white" stroke="#10B981" stroke-width="1.8"/>
  <text x="189.1" y="122.19999999999999" text-anchor="middle" font-size="8.5" font-weight="600" fill="#10B981">3.4%</text>
  <circle cx="232.8" cy="122.7" r="3" fill="white" stroke="#10B981" stroke-width="1.8"/>
  <circle cx="276.5" cy="103.5" r="3" fill="white" stroke="#10B981" stroke-width="1.8"/>
  <text x="276.5" y="92.5" text-anchor="middle" font-size="8.5" font-weight="600" fill="#10B981">8.9%</text>
  <circle cx="320.2" cy="79.4" r="3" fill="white" stroke="#10B981" stroke-width="1.8"/>
  <text x="320.2" y="68.4" text-anchor="middle" font-size="8.5" font-weight="600" fill="#10B981">13%</text>
  <circle cx="363.9" cy="60.2" r="3" fill="white" stroke="#10B981" stroke-width="1.8"/>
  <circle cx="407.6" cy="49.7" r="3" fill="white" stroke="#10B981" stroke-width="1.8"/>
  <circle cx="451.3" cy="45.1" r="3" fill="white" stroke="#10B981" stroke-width="1.8"/>
  <text x="451.3" y="59.1" text-anchor="middle" font-size="8.5" font-weight="600" fill="#10B981">20%</text>
  <circle cx="495.0" cy="43.3" r="3" fill="white" stroke="#10B981" stroke-width="1.8"/>
  <text x="495.0" y="57.3" text-anchor="middle" font-size="8.5" font-weight="600" fill="#10B981">20%</text>
</svg>