<svg viewBox="0 0 520 240" xmlns="http://www.w3.org/2000/svg" font-family="system-ui, -apple-system, sans-serif">
  <text x="210.0" y="15" text-anchor="middle" font-size="12" font-weight="600" fill="#374151">S-Curve Convergence Library — All Six Shapes</text>
  <rect x="45" y="25" width="330" height="173" fill="#fafafa" rx="3"/>
  <line x1="45" y1="25.0" x2="375" y2="25.0" stroke="#e5e7eb" stroke-width="0.5"/>
  <text x="41" y="25.0" text-anchor="end" dominant-baseline="middle" font-size="9" fill="#9ca3af">100%</text>
  <line x1="45" y1="59.6" x2="375" y2="59.6" stroke="#e5e7eb" stroke-width="0.5"/>
  <text x="41" y="59.6" text-anchor="end" dominant-baseline="middle" font-size="9" fill="#9ca3af">80%</text>
  <line x1="45" y1="94.2" x2="375" y2="94.2" stroke="#e5e7eb" stroke-width="0.5"/>
  <text x="41" y="94.2" text-anchor="end" dominant-baseline="middle" font-size="9" fill="#9ca3af">60%</text>
  <line x1="45" y1="128.8" x2="375" y2="128.8" stroke="#e5e7eb" stroke-width="0.5"/>
  <text x="41" y="128.8" text-anchor="end" dominant-baseline="middle" font-size="9" fill="#9ca3af">40%</text>
  <line x1="45" y1="163.4" x2="375" y2="163.4" stroke="#e5e7eb" stroke-width="0.5"/>
  <text x="41" y="163.4" text-anchor="end" dominant-baseline="middle" font-size="9" fill="#9ca3af">20%</text>
  <line x1="45" y1="198.0" x2="375" y2="198.0" stroke="#e5e7eb" stroke-width="0.5"/>
  <text x="41" y="198.0" text-anchor="end" dominant-baseline="middle" font-size="9" fill="#9ca3af">0%</text>
  <text x="45.0" y="226" text-anchor="middle" font-size="9" fill="#9ca3af">0</text>
  <text x="78.0" y="226" text-anchor="middle" font-size="9" fill="#9ca3af">1</text>
  <text x="111.0" y="226" text-anchor="middle" font-size="9" fill="#9ca3af">2</text>
  <text x="144.0" y="226" text-anchor="middle" font-size="9" fill="#9ca3af">3</text>
  <text x="177.0" y="226" text-anchor="middle" font-size="9" fill="#9ca3af">4</text>
  <text x="210.0" y="226" text-anchor="middle" font-size="9" fill="#9ca3af">5</text>
  <text x="243.0" y="226" text-anchor="middle" font-size="9" fill="#9ca3af">6</text>
  <text x="276.0" y="226" text-anchor="middle" font-size="9" fill="#9ca3af">7</text>
  <text x="309.0" y="226" text-anchor="middle" font-size="9" fill="#9ca3af">8</text>
  <text x="342.0" y="226" text-anchor="middle" font-size="9" fill="#9ca3af">9</text>
  <text x="375.0" y="226" text-anchor="middle" font-size="9" fill="#9ca3af">10</text>
  <text x="210.0" y="238" text-anchor="middle" font-size="9" fill="#d1d5db">Year</text>
  <polyline points="45.0,25.0 78.0,77.7 111.0,114.8 144.0,141.0 177.0,159.4 210.0,172.4 243.0,181.5 276.0,188.0 309.0,192.5 342.0,195.7 375.0,198.0" fill="none" stroke="#EF4444" stroke-width="2" stroke-linecap="round" stroke-linejoin="round"/>
  <line x1="387" y1="35" x2="405" y2="35" stroke="#EF4444" stroke-width="2.5" stroke-linecap="round"/>
  <text x="411" y="35" dominant-baseline="middle" font-size="9.5" fill="#374151">Exponential Decay</text>
  <polyline points="45.0,25.0 78.0,28.8 111.0,48.9 144.0,111.1 177.0,173.3 210.0,193.4 243.0,197.2 276.0,197.9 309.0,198.0 342.0,198.0 375.0,198.0" fill="none" stroke="#F97316" stroke-width="2" stroke-linecap="round" stroke-linejoin="round"/>
  <line x1="387" y1="57" x2="405" y2="57" stroke="#F97316" stroke-width="2.5" stroke-linecap="round"/>
  <text x="411" y="57" dominant-baseline="middle" font-size="9.5" fill="#374151">Rapid Deceleration</text>
  <polyline points="45.0,25.0 78.0,26.2 111.0,29.4 144.0,37.6 177.0,56.3 210.0,90.6 243.0,133.6 276.0,167.9 309.0,186.6 342.0,194.8 375.0,198.0" fill="none" stroke="#3B82F6" stroke-width="2" stroke-linecap="round" stroke-linejoin="round"/>
  <line x1="387" y1="79" x2="405" y2="79" stroke="#3B82F6" stroke-width="2.5" stroke-linecap="round"/>
  <text x="411" y="79" dominant-baseline="middle" font-size="9.5" fill="#374151">Standard S-Curve</text>
  <polyline points="45.0,25.0 78.0,42.3 111.0,59.6 144.0,76.9 177.0,94.2 210.0,111.5 243.0,128.8 276.0,146.1 309.0,163.4 342.0,180.7 375.0,198.0" fill="none" stroke="#6B7280" stroke-width="2" stroke-linecap="round" stroke-linejoin="round"/>
  <line x1="387" y1="101" x2="405" y2="101" stroke="#6B7280" stroke-width="2.5" stroke-linecap="round"/>
  <text x="411" y="101" dominant-baseline="middle" font-size="9.5" fill="#374151">Linear</text>
  <polyline points="45.0,25.0 78.0,25.0 111.0,25.0 144.0,25.1 177.0,25.3 210.0,26.9 243.0,36.0 276.0,75.6 309.0,149.4 342.0,188.9 375.0,198.0" fill="none" stroke="#10B981" stroke-width="2" stroke-linecap="round" stroke-linejoin="round"/>
  <line x1="387" y1="123" x2="405" y2="123" stroke="#10B981" stroke-width="2.5" stroke-linecap="round"/>
  <text x="411" y="123" dominant-baseline="middle" font-size="9.5" fill="#374151">Delayed Deceleration</text>
  <polyline points="45.0,25.0 78.0,25.0 111.0,25.0 144.0,25.0 177.0,25.0 210.0,69.9 243.0,153.1 276.0,198.0 309.0,198.0 342.0,198.0 375.0,198.0" fill="none" stroke="#8B5CF6" stroke-width="2" stroke-linecap="round" stroke-linejoin="round"/>
  <line x1="387" y1="145" x2="405" y2="145" stroke="#8B5CF6" stroke-width="2.5" stroke-linecap="round"/>
  <text x="411" y="145" dominant-baseline="middle" font-size="9.5" fill="#374151">Step-Down</text>
</svg>